HIERARCHY
ROOT root
{
	OFFSET 0.000000 0.000000 0.000000
	CHANNELS 6 Xposition Yposition Zposition Zrotation Yrotation Xrotation
	JOINT lhip
	{
		OFFSET 0.058581 -0.082280 -0.017664
		CHANNELS 3 Zrotation Yrotation Xrotation
		JOINT lknee
		{
			OFFSET 0.043451 -0.386469 0.008037
			CHANNELS 3 Zrotation Yrotation Xrotation
			JOINT lankle
			{
				OFFSET -0.014790 -0.426874 -0.037428
				CHANNELS 3 Zrotation Yrotation Xrotation
				JOINT ltoe
				{
					OFFSET 0.041054 -0.060286 0.122042
					CHANNELS 3 Zrotation Yrotation Xrotation
					End Site
					{
						OFFSET 0.000000 0.000000 0.000000
					}
				}
			}
		}
	}
	JOINT rhip
	{
		OFFSET -0.060310 -0.090513 -0.013543
		CHANNELS 3 Zrotation Yrotation Xrotation
		JOINT rknee
		{
			OFFSET -0.043257 -0.383688 -0.004843
			CHANNELS 3 Zrotation Yrotation Xrotation
			JOINT rankle
			{
				OFFSET 0.019056 -0.420046 -0.034562
				CHANNELS 3 Zrotation Yrotation Xrotation
				JOINT rtoe
				{
					OFFSET -0.034840 -0.062106 0.130323
					CHANNELS 3 Zrotation Yrotation Xrotation
					End Site
					{
						OFFSET 0.000000 0.000000 0.000000
					}
				}
			}
		}
	}
	JOINT lowerback
	{
		OFFSET 0.004439 0.124404 -0.038385
		CHANNELS 3 Zrotation Yrotation Xrotation
		JOINT upperback
		{
			OFFSET 0.004488 0.137956 0.026820
			CHANNELS 3 Zrotation Yrotation Xrotation
			JOINT chest
			{
				OFFSET -0.002265 0.056032 0.002855
				CHANNELS 3 Zrotation Yrotation Xrotation
				JOINT lowerneck
				{
					OFFSET -0.013390 0.211636 -0.033468
					CHANNELS 3 Zrotation Yrotation Xrotation
					JOINT upperneck
					{
						OFFSET 0.010113 0.088937 0.050410
						CHANNELS 3 Zrotation Yrotation Xrotation
						End Site
						{
							OFFSET 0.000000 0.000000 0.000000
						}
					}
				}
				JOINT lclavicle
				{
					OFFSET 0.071702 0.114000 -0.018898
					CHANNELS 3 Zrotation Yrotation Xrotation
					JOINT lshoulder
					{
						OFFSET 0.122921 0.045205 -0.019046
						CHANNELS 3 Zrotation Yrotation Xrotation
						JOINT lelbow
						{
							OFFSET 0.255332 -0.015649 -0.022946
							CHANNELS 3 Zrotation Yrotation Xrotation
							JOINT lwrist
							{
								OFFSET 0.265709 0.012698 -0.007375
								CHANNELS 3 Zrotation Yrotation Xrotation
								End Site
								{
									OFFSET 0.000000 0.000000 0.000000
								}
							}
						}
					}
				}
				JOINT rclavicle
				{
					OFFSET -0.082954 0.112472 -0.023707
					CHANNELS 3 Zrotation Yrotation Xrotation
					JOINT rshoulder
					{
						OFFSET -0.113228 0.046853 -0.008472
						CHANNELS 3 Zrotation Yrotation Xrotation
						JOINT relbow
						{
							OFFSET -0.260127 -0.014369 -0.031269
							CHANNELS 3 Zrotation Yrotation Xrotation
							JOINT rwrist
							{
								OFFSET -0.269108 0.006794 -0.006027
								CHANNELS 3 Zrotation Yrotation Xrotation
								End Site
								{
									OFFSET 0.000000 0.000000 0.000000
								}
							}
						}
					}
				}
			}
		}
	}
}
MOTION
Frames: 14
Frame Time: 0.033333
0.259116 -0.237733 0.985455 106.320277 1.967446 87.715072 5.296409 6.135217 9.323185 -1.736493 9.399563 0.184699 4.712240 12.771921 -11.576735 0.000000 -0.000000 0.000000 -3.771191 -0.674847 -3.581552 -1.621778 2.873636 6.096878 3.756149 -1.677144 -4.249707 0.000000 -0.000000 0.000000 -1.729655 -1.773196 1.032203 2.551544 -3.549566 7.037654 -1.604851 -2.163216 -1.599352 4.496959 -20.124020 -4.472183 0.956520 -20.798305 17.109506 -25.295310 -0.690373 3.868467 -56.689589 -13.772451 17.204669 -28.172930 -86.900924 55.146410 -3.413498 -7.447098 -0.180186 24.938415 7.901072 4.151496 49.661568 14.728447 19.486885 4.928772 73.657655 29.945251 27.302372 2.720070 11.203733 
0.260739 -0.234437 0.984789 106.721803 1.935778 87.585143 5.211262 6.313664 9.573060 -1.760941 8.584817 0.188434 4.623485 13.063223 -11.832245 0.000000 -0.000000 0.000000 -4.025218 -0.692380 -3.247384 -1.534422 3.234170 6.255264 4.390609 -2.576283 -4.597170 0.000000 -0.000000 0.000000 -1.703723 -1.789807 0.737461 2.173580 -2.881768 6.766066 -1.614580 -1.875530 -0.847877 4.716924 -20.056017 -4.825889 0.285593 -21.306331 17.787972 -25.551504 0.744451 3.673884 -56.674005 -13.513442 15.968227 -4.755781 -80.315578 31.525985 -2.447692 -7.971242 1.191979 25.628149 6.715607 4.551302 50.288419 13.840988 18.643889 -0.052542 67.661174 23.949975 24.641208 3.604731 11.159839 
0.261600 -0.230827 0.983605 107.325860 1.884677 87.703254 5.036698 6.246007 9.414523 -1.700132 8.095402 0.333356 4.583660 12.989701 -11.921379 0.000000 -0.000000 0.000000 -4.292756 -0.993529 -3.551621 -1.481160 3.408747 7.007774 4.331573 -3.067967 -5.006899 0.000000 -0.000000 0.000000 -1.582038 -1.536540 0.573026 1.909211 -2.693669 6.353307 -1.859143 -1.745419 -0.548735 4.624316 -19.932687 -4.276376 0.301397 -21.505602 17.758481 -25.569560 1.679484 3.777005 -56.171423 -12.744868 14.586204 0.789028 -72.449055 25.486097 -1.095353 -6.943635 0.720890 26.328351 5.835027 5.081218 51.228667 13.097002 17.562701 -4.047450 60.225976 19.196329 21.215277 4.050982 11.501348 
0.263057 -0.226104 0.982592 107.998214 1.938122 87.640432 5.051734 6.399944 9.418454 -1.829947 6.873780 0.621909 4.597566 13.444643 -12.131173 0.000000 -0.000000 0.000000 -4.480475 -1.179102 -3.412458 -1.441421 3.842034 7.735898 4.244850 -3.801804 -5.557999 0.000000 -0.000000 0.000000 -1.622214 -1.284808 0.441647 1.875240 -2.454703 5.971972 -2.058680 -1.386586 -0.362732 4.413550 -19.532633 -3.044766 0.102084 -22.342378 17.610785 -25.483226 2.206400 3.545568 -55.623289 -12.235979 12.605980 3.224123 -59.215274 21.712329 -0.040232 -6.248327 0.597830 27.443782 5.043708 5.957878 52.417817 12.595448 15.847444 -8.600825 48.829709 13.457232 15.081373 4.439669 12.655847 
0.264203 -0.223041 0.981895 108.498023 2.043902 87.419887 5.174221 6.560664 9.527418 -1.888619 5.984463 0.979436 4.673377 13.641012 -12.279297 0.000000 -0.000000 0.000000 -4.484191 -1.424432 -3.066893 -1.456395 3.965054 8.033302 4.015914 -4.291989 -5.867091 0.000000 -0.000000 0.000000 -1.654070 -1.104395 0.387552 1.883847 -2.540035 5.975732 -2.097145 -1.321574 -0.275675 4.240245 -19.385334 -2.316887 0.120592 -22.804828 17.245822 -25.632775 1.787119 4.012362 -54.975108 -12.199971 11.135991 4.972651 -49.968136 18.810619 1.421961 -5.721758 -0.018316 28.150610 5.227968 6.580059 53.071639 12.678469 14.608695 -10.607355 40.664392 10.311161 10.472022 4.781850 12.208355 
0.265273 -0.218637 0.981090 108.933077 2.175033 87.099830 5.206020 6.757140 9.860928 -1.864715 4.998877 1.196093 4.625319 13.945564 -12.476157 0.000000 -0.000000 0.000000 -4.554642 -1.408904 -2.733467 -1.480292 3.971904 8.569541 3.884946 -4.714270 -6.276959 0.000000 -0.000000 0.000000 -1.540750 -0.952694 0.783990 1.776103 -2.564384 5.728879 -2.170976 -1.159311 -0.619605 4.078526 -19.207394 -1.159423 -0.064772 -23.395277 16.606314 -25.900790 1.022573 4.237624 -54.108930 -11.792374 9.010734 6.921060 -36.455150 15.058122 1.338810 -4.981277 -0.296723 28.831074 5.758482 7.686409 53.951589 12.930643 13.127315 -12.267095 29.006449 6.774902 5.021078 4.883284 10.184703 
0.266718 -0.213569 0.979975 109.354760 2.220812 86.671792 5.161506 7.216745 10.326554 -1.842235 3.534597 1.353070 4.716800 14.533139 -12.611821 0.000000 -0.000000 0.000000 -4.732154 -1.549598 -2.237451 -1.462588 4.141555 8.927876 3.628817 -5.443387 -6.476694 0.000000 -0.000000 0.000000 -1.517343 -0.958870 1.259656 1.448390 -2.655862 5.189666 -2.090598 -1.173914 -0.572545 3.660700 -19.838344 0.031872 0.350842 -23.087518 15.687434 -25.969257 0.075382 4.422331 -53.522386 -10.850056 7.152174 8.745957 -23.031945 10.827035 5.145560 -2.857996 -1.304226 29.061069 6.870381 8.184107 54.560978 12.688055 12.128200 -12.133635 17.938834 4.172913 -0.335446 3.582343 7.372755 
0.267875 -0.207924 0.978704 109.907300 2.406411 86.371755 5.354718 7.542633 10.723385 -2.011686 2.312363 1.344600 4.676745 14.884193 -12.789436 0.000000 -0.000000 0.000000 -4.722379 -1.641586 -1.888409 -1.540855 4.484869 9.490459 3.432723 -5.976924 -7.009982 0.000000 -0.000000 0.000000 -1.450510 -0.948936 1.572568 1.278946 -2.922644 4.734836 -1.973891 -1.321680 -0.522698 3.326873 -20.609386 0.737039 0.704222 -23.026730 14.819064 -25.889901 -0.152537 4.560894 -53.131449 -9.632723 4.950133 10.488032 -11.725756 6.883659 5.478745 -0.750727 -1.459238 28.916797 7.254424 8.206763 55.092432 11.961741 11.137999 -11.900290 9.809391 2.213589 -1.347679 1.184210 6.147773 
0.268451 -0.201752 0.977900 110.134614 2.536993 86.066916 5.313994 7.818153 11.344073 -2.047689 1.706425 1.068179 4.804738 15.069375 -12.917222 0.000000 -0.000000 0.000000 -4.779177 -1.836369 -1.679161 -1.590957 5.426627 9.968872 3.374139 -6.672117 -7.147856 0.000000 -0.000000 0.000000 -1.500369 -0.858914 1.488434 1.138448 -3.045423 4.898129 -1.767956 -1.521958 -0.109017 2.885732 -21.896844 0.888198 1.647451 -22.414587 13.411760 -25.884169 0.808414 4.166314 -52.248500 -8.258519 2.074958 11.185109 -4.775344 1.587904 8.297508 2.688943 0.546906 28.726565 6.600795 7.422583 54.693671 10.361409 10.084528 -11.232495 6.966093 0.139622 0.680674 -1.237477 8.150119 
0.266985 -0.193777 0.977230 110.438009 2.685762 86.168746 4.924128 7.407722 11.158363 -2.094131 1.278990 1.303939 4.861300 15.654240 -13.256511 0.000000 -0.000000 0.000000 -4.989034 -1.917076 -2.493216 -1.547102 6.086069 11.371414 3.633142 -7.265002 -7.165762 0.000000 -0.000000 0.000000 -1.749963 -0.818034 1.226260 1.400184 -3.188590 5.247498 -1.590110 -1.732209 0.297540 2.823447 -22.467835 -0.056458 2.336956 -22.685833 12.257704 -26.629384 3.014979 3.937957 -50.085379 -5.366332 -0.062752 11.405657 -2.760915 -2.696520 7.263299 4.051537 -0.077507 29.477061 3.944818 6.833652 52.085674 7.839747 9.159613 -10.138075 8.962330 0.964269 5.745089 -2.089078 9.662343 
0.265619 -0.187212 0.977246 110.634137 2.853358 86.006556 4.631076 7.022186 11.293945 -2.130889 1.329425 1.400545 4.782292 15.866116 -13.683020 0.000000 -0.000000 0.000000 -5.143166 -1.491447 -3.051136 -1.591476 6.455922 12.835397 3.899257 -7.520313 -7.214464 0.000000 -0.000000 0.000000 -2.056711 -1.007963 1.197447 1.821534 -3.026119 5.886702 -1.398281 -1.863413 0.413554 3.330931 -22.388303 -1.095700 2.177304 -23.502068 11.367018 -26.970909 5.374433 4.185918 -48.205438 -3.220218 -1.053386 10.453290 -4.231658 -4.961221 4.398489 2.683407 -2.849742 30.326286 1.468032 6.864570 49.289835 7.099055 8.019954 -9.245460 10.726957 -1.338170 6.286801 -0.070337 8.903082 
0.262248 -0.180501 0.977537 111.033722 3.012336 85.780638 4.343826 6.682024 11.250918 -2.165825 1.348885 1.698762 4.801184 15.687768 -14.071354 0.000000 -0.000000 0.000000 -5.378728 -0.975778 -3.947673 -1.705603 6.269108 14.852879 4.368195 -7.379073 -7.185579 0.000000 -0.000000 0.000000 -2.362644 -1.204574 1.706795 2.238855 -2.814924 6.030825 -1.186011 -1.978626 0.584348 3.891426 -22.275000 -1.867505 1.948595 -24.159446 10.796792 -27.008883 7.570696 3.862081 -47.238740 -2.204015 -1.899799 10.456160 -4.307440 -6.474317 -0.589602 0.536504 -6.214994 30.622257 -1.035662 6.635643 47.851519 7.287157 6.917625 -9.672614 10.797499 -3.947965 9.015537 0.911359 5.986361 
0.257821 -0.173260 0.978344 111.818872 3.126570 85.437131 3.957515 6.546367 11.112245 -1.998091 0.612084 2.387676 3.080464 15.609062 -16.278835 0.000000 -0.000000 0.000000 -5.621092 -0.469096 -4.979468 -2.238869 5.351380 17.505415 6.377855 -6.988369 -7.343800 0.000000 -0.000000 0.000000 -2.502683 -1.349039 1.826825 2.248708 -2.700808 6.656100 -1.030874 -1.872543 1.647961 5.916547 -20.616022 -3.487710 1.644483 -26.805366 9.267936 -26.772932 8.922964 2.786608 -46.751253 -3.610400 -1.014208 10.762217 -1.696801 -12.088533 -3.103048 -0.511777 -8.493005 30.811632 -2.089809 2.708804 47.579908 6.161603 7.700262 -10.694226 8.892009 -7.880301 9.649876 0.825040 1.194995 
0.252507 -0.166145 0.979393 112.871695 3.214555 84.939862 3.707633 6.324011 11.350103 -2.145425 -0.225611 2.569864 3.600292 15.641502 -16.254285 0.000000 -0.000000 0.000000 -5.829877 -0.146016 -5.816349 -2.411191 5.521936 20.115409 6.655335 -7.606278 -6.585939 0.000000 -0.000000 0.000000 -2.663086 -1.447555 3.020226 2.261712 -2.579186 6.281338 -0.908925 -1.845363 1.881449 6.214356 -21.702077 -3.689914 2.161387 -27.044888 9.159183 -26.424659 8.457681 3.129995 -46.534699 -4.659849 -1.701168 11.183690 0.437226 -15.637701 -1.820215 0.336966 -11.877601 30.905507 -2.070458 3.496601 47.463785 6.976223 6.692341 -11.898934 6.896679 -12.697813 7.699023 -0.087027 -2.891809 
